<svg display="none">
    <symbol id = "facebook-empty-letter" viewBox="0 0 48.605 48.605">
        <g>
            <path d="M34.094,8.688h4.756V0.005h-8.643c-0.721-0.03-9.51-0.198-11.788,8.489c-0.033,0.091-0.761,2.157-0.761,6.983l-7.903,0.024
		v9.107l7.913-0.023v24.021h12.087v-24h8v-9.131h-8v-2.873C29.755,10.816,30.508,8.688,34.094,8.688z M35.755,17.474v5.131h-8v24
		h-8.087V22.579l-7.913,0.023v-5.107l7.934-0.023l-0.021-1.017c-0.104-5.112,0.625-7.262,0.658-7.365
		c1.966-7.482,9.473-7.106,9.795-7.086l6.729,0.002v4.683h-2.756c-4.673,0-6.338,3.054-6.338,5.912v4.873L35.755,17.474
		L35.755,17.474z"/>
        </g>
    </symbol>
    <symbol id = "twitter-empty" viewBox="0 0 512 512">
        <g>
            <path d="M507.413,93.394c-3.709-2.51-8.607-2.383-12.174,0.327c-3.612,2.735-9.474,5.087-16.138,7.016
			c18.245-21.301,18.623-35.541,18.408-38.893c-0.245-3.801-2.541-7.168-5.985-8.791c-3.459-1.612-7.51-1.23-10.587,1.005
			c-21.893,15.908-43.689,19.373-56.791,19.76c-20.337-19.342-46.704-29.944-74.74-29.944c-60.271,0-109.307,49.684-109.307,110.751
			c0,4.944,0.327,9.878,0.969,14.771C138.176,167.645,54.665,69.155,53.803,68.119c-2.184-2.617-5.5-4.041-8.929-3.714
			c-3.398,0.296-6.444,2.235-8.148,5.189c-29.005,50.322-11.286,94.725,6.505,121.327c-1.837-1.092-3.342-2.097-4.372-2.857
			c-3.143-2.337-7.337-2.725-10.852-0.995c-3.521,1.735-5.771,5.286-5.837,9.209c-0.786,48.255,21.764,76.49,43.674,92.49
			c-2.372,0.327-4.597,1.459-6.266,3.276c-2.51,2.724-3.393,6.576-2.311,10.122c15.194,49.735,52.041,67.352,76.373,73.587
			c-49.22,37.138-120.557,25.016-121.348,24.867c-4.73-0.831-9.464,1.663-11.408,6.082c-1.939,4.413-0.612,9.587,3.225,12.51
			c52.464,40.041,115.21,48.913,160.53,48.913c34.272,0,58.573-5.077,60.91-5.582c228.617-54.179,235.864-263.063,235.394-298.66
			c42.888-39.929,49.633-55.255,50.684-59.067C512.811,100.502,511.117,95.91,507.413,93.394z M443.283,151.752
			c-2.33,2.143-3.56,5.235-3.346,8.398c0.036,0.561,3.536,57.179-21.694,120.266c-33.709,84.291-100.164,138.725-197.307,161.746
			c-1.041,0.219-90.905,18.831-169.792-18.689c33.725-1.414,80.429-10.913,113.292-47.806c2.745-3.077,3.398-7.833,1.709-11.593
			c-1.689-3.75-5.439-6.51-9.551-6.51c-0.02,0-0.041,0-0.071,0c-2.76,0-50.337-0.357-73.133-46.306
			c9.219,0.398,20.24-0.145,29.122-4.237c4.092-1.888,6.51-6.1,6.005-10.574c-0.505-4.475-3.821-8.079-8.23-9.008
			c-2.556-0.541-57.649-12.836-66.143-72.693c8.464,3.526,19.015,6.257,29.51,4.685c4.031-0.602,7.332-3.5,8.474-7.413
			c1.138-3.908-0.107-8.13-3.184-10.809c-2.383-2.07-54.327-48.273-30.541-107.973c28.158,29.332,108.46,102.368,205.833,96.786
			c3.107-0.179,5.975-1.74,7.82-4.25c1.843-2.51,2.471-5.709,1.71-8.728c-1.837-7.316-2.77-14.857-2.77-22.418
			c0-49.546,39.658-89.853,88.409-89.853c23.842,0,46.203,9.515,62.97,26.796c1.923,1.985,4.556,3.122,7.322,3.174
			c9.658,0.092,25.561-0.949,43.531-7.633c-5.359,6.275-12.852,13.622-23.332,21.852c-3.622,2.847-4.954,7.735-3.276,12.026
			c1.684,4.301,6.056,7.02,10.566,6.607c2.112-0.168,12.352-1.071,24.352-3.505C464.662,131.4,455.494,140.523,443.283,151.752z"/>
        </g>
    </symbol>
    <symbol id = "dribbble-empty" viewBox="0 0 512 512">
        <g>
            <path d="M431.908,70.315l-9.978-9.455l-0.206,0.347C375.361,21.659,317.04,0,256.002,0c-33.211,0-65.606,6.383-96.411,18.975
			l-0.092-0.096l-6.709,3.07C77.399,55.32,22.291,123.207,5.862,203.544v1.364H5.433c-0.015,0-0.027-0.53-0.043-0.455l-1.727,7.945
			l0.158-0.096c-2.519,14.554-3.81,29.189-3.81,43.792c0,75.444,32.77,145.914,90.198,194.771l-0.063,0.12l6.594,5.241
			C142.571,492.721,197.645,512,256.002,512c30.811,0,61.217-5.693,90.711-16.902l6.896-2.688v-0.163
			c84.883-34.19,143.853-110.479,155.637-202.726l0.601,0.179l1.143-14.172c0.556-7.123,1-13.092,1-19.52
			C511.99,185.211,483.564,119.26,431.908,70.315z M256.002,21.905c57.011,0,111.432,20.689,154.261,58.376
			c-30.582,48.616-73.471,87.25-124.933,112.497C256.82,135.542,220.161,82.937,176.13,36.061
			C201.807,26.673,228.6,21.905,256.002,21.905z M154.572,45.148c44.864,46.57,82.081,99.184,110.783,156.6
			c-36.75,14.942-75.54,22.504-115.479,22.504c-42.008,0-82.685-8.343-121.034-24.804C45.553,132.192,91.81,75.396,154.572,45.148z
			 M21.915,256.008c0-11.522,0.881-23.127,2.598-34.65c39.828,16.448,81.927,24.799,125.363,24.799
			c43.211,0,85.164-8.284,124.886-24.611c6.052,13.268,11.749,27.039,17.029,41.185c-84.042,27.756-152.979,87.846-192.084,167.314
			C50.103,385.566,21.915,322.901,21.915,256.008z M256.002,490.089c-50.517,0-98.344-15.82-138.864-45.822
			c36.162-76.604,101.739-134.555,182.008-160.921c20.995,62.529,32.028,127.656,32.84,193.854
			C307.203,485.758,281.679,490.089,256.002,490.089z M353.715,468.575c-1.625-65.294-12.878-129.52-33.529-191.314
			c55.356-13.923,113.844-12.102,168.06,5.067C479.104,365.698,428.602,435.329,353.715,468.575z M490.046,259.912
			c-30.724-9.231-62.523-13.905-94.718-13.905c-27.767,0-55.421,3.527-82.367,10.479l-0.055-0.158l-0.064,0.019
			c-5.557-14.971-11.573-29.582-17.973-43.626l0.093-0.043l-0.078-0.16c53.821-26.39,98.916-66.417,131.52-116.725
			c41.18,43.618,63.7,99.997,63.7,160.215C490.105,257.313,490.083,258.618,490.046,259.912z"/>
        </g>
    </symbol>
</svg>